<svg xmlns="http://www.w3.org/2000/svg" viewBox="-5 -5 110 110" fill="none" overflow="visible">
  <g transform="translate(5,5)">
    <path d="M 100.0000,50.0000 L 99.9807,40.0930 L 99.9229,35.9947 L 99.8264,32.8581 L 99.6913,30.2241 L 99.5173,27.9155 L 99.3044,25.8419 L 99.0524,23.9500 L 98.7611,22.2054 L 98.4301,20.5841 L 98.0593,19.0693 L 97.6483,17.6480 L 97.1966,16.3106 L 96.7037,15.0493 L 96.1693,13.8580 L 95.5925,12.7317 L 94.9727,11.6664 L 94.3091,10.6587 L 93.6006,9.7058 L 92.8463,8.8053 L 92.0448,7.9552 L 91.1947,7.1537 L 90.2942,6.3994 L 89.3413,5.6909 L 88.3336,5.0273 L 87.2683,4.4075 L 86.1420,3.8307 L 84.9507,3.2963 L 83.6894,2.8034 L 82.3520,2.3517 L 80.9307,1.9407 L 79.4159,1.5699 L 77.7946,1.2389 L 76.0500,0.9476 L 74.1581,0.6956 L 72.0845,0.4827 L 69.7759,0.3087 L 67.1419,0.1736 L 64.0053,0.0771 L 59.9070,0.0193 L 50.0000,0.0000 L 40.0930,0.0193 L 35.9947,0.0771 L 32.8581,0.1736 L 30.2241,0.3087 L 27.9155,0.4827 L 25.8419,0.6956 L 23.9500,0.9476 L 22.2054,1.2389 L 20.5841,1.5699 L 19.0693,1.9407 L 17.6480,2.3517 L 16.3106,2.8034 L 15.0493,3.2963 L 13.8580,3.8307 L 12.7317,4.4075 L 11.6664,5.0273 L 10.6587,5.6909 L 9.7058,6.3994 L 8.8053,7.1537 L 7.9552,7.9552 L 7.1537,8.8053 L 6.3994,9.7058 L 5.6909,10.6587 L 5.0273,11.6664 L 4.4075,12.7317 L 3.8307,13.8580 L 3.2963,15.0493 L 2.8034,16.3106 L 2.3517,17.6480 L 1.9407,19.0693 L 1.5699,20.5841 L 1.2389,22.2054 L 0.9476,23.9500 L 0.6956,25.8419 L 0.4827,27.9155 L 0.3087,30.2241 L 0.1736,32.8581 L 0.0771,35.9947 L 0.0193,40.0930 L 0.0000,50.0000 L 0.0193,59.9070 L 0.0771,64.0053 L 0.1736,67.1419 L 0.3087,69.7759 L 0.4827,72.0845 L 0.6956,74.1581 L 0.9476,76.0500 L 1.2389,77.7946 L 1.5699,79.4159 L 1.9407,80.9307 L 2.3517,82.3520 L 2.8034,83.6894 L 3.2963,84.9507 L 3.8307,86.1420 L 4.4075,87.2683 L 5.0273,88.3336 L 5.6909,89.3413 L 6.3994,90.2942 L 7.1537,91.1947 L 7.9552,92.0448 L 8.8053,92.8463 L 9.7058,93.6006 L 10.6587,94.3091 L 11.6664,94.9727 L 12.7317,95.5925 L 13.8580,96.1693 L 15.0493,96.7037 L 16.3106,97.1966 L 17.6480,97.6483 L 19.0693,98.0593 L 20.5841,98.4301 L 22.2054,98.7611 L 23.9500,99.0524 L 25.8419,99.3044 L 27.9155,99.5173 L 30.2241,99.6913 L 32.8581,99.8264 L 35.9947,99.9229 L 40.0930,99.9807 L 50.0000,100.0000 L 59.9070,99.9807 L 64.0053,99.9229 L 67.1419,99.8264 L 69.7759,99.6913 L 72.0845,99.5173 L 74.1581,99.3044 L 76.0500,99.0524 L 77.7946,98.7611 L 79.4159,98.4301 L 80.9307,98.0593 L 82.3520,97.6483 L 83.6894,97.1966 L 84.9507,96.7037 L 86.1420,96.1693 L 87.2683,95.5925 L 88.3336,94.9727 L 89.3413,94.3091 L 90.2942,93.6006 L 91.1947,92.8463 L 92.0448,92.0448 L 92.8463,91.1947 L 93.6006,90.2942 L 94.3091,89.3413 L 94.9727,88.3336 L 95.5925,87.2683 L 96.1693,86.1420 L 96.7037,84.9507 L 97.1966,83.6894 L 97.6483,82.3520 L 98.0593,80.9307 L 98.4301,79.4159 L 98.7611,77.7946 L 99.0524,76.0500 L 99.3044,74.1581 L 99.5173,72.0845 L 99.6913,69.7759 L 99.8264,67.1419 L 99.9229,64.0053 L 99.9807,59.9070 L 100.0000,50.0000 Z" fill="none" stroke="#000" stroke-width="4.5455" stroke-linejoin="round" stroke-linecap="round"/>
  </g>
</svg>