<svg xmlns="http://www.w3.org/2000/svg" width="470" height="160" viewBox="0 0 187 65">
  <defs>
    <mask id="cutout-mask-wordmark">
      <rect x="0" y="0" width="1024" height="1024" fill="white"/>
      <path fill="black" fill-opacity="0.90" fill-rule="evenodd" d="M349 129.3c-23.9 5.4-36.8 31.5-26.1 53.2 8 16.2 25.2 24.4 42.1 20.1 7.4-1.9 5.3-3.4 18.5 13.9 10.3 13.6 33.6 44.2 36.7 48.4 3.5 4.6 3.5 4.6-1.1 8.9-5.9 5.6-14.1 16.9-19 26-5 9.4-3.4 8.6-22.1 10.2-136.2 11.1-177 34.7-192.6 111.5-16.5 81.2-16.5 193.6.1 276.7 10.5 52.9 39.8 83.7 89.3 93.9 6 1.3 6 1.3 2.5 8.8-18.4 39.4-5.4 73.1 30 78.1 24.5 3.5 32.3-1.8 73.7-50 20.8-24.3 16.8-22.1 37-20.5 50.9 4.1 138.2 4.1 189 0 20.2-1.6 16.2-3.8 37 20.5 41.4 48.2 49.2 53.5 73.7 50 35.4-5 48.4-38.7 30-78.1-3.5-7.5-3.5-7.5 2.5-8.8 49.5-10.2 78.8-41 89.3-93.9 16.6-83.1 16.6-195.5.1-276.7C824 344.7 783.2 321.1 647 310c-18.7-1.6-17.1-.8-22.1-10.2-4.9-9.1-13.1-20.4-19-26-4.6-4.3-4.6-4.3-1.1-8.9 3.1-4.2 26.4-34.8 36.7-48.4 13.2-17.3 11.1-15.8 18.5-13.9 41.5 10.6 64.2-49.2 26.3-69.3-32-17.1-68 17.2-51.7 49.3 3.1 6.1 3.1 6.1-11.8 25.5-8.2 10.7-20 26-26.1 34.1-11.1 14.8-11.1 14.8-14.7 12.6-44.5-26.5-94.5-26.5-139 0-3.6 2.2-3.6 2.2-14.7-12.6-6.1-8.1-17.9-23.4-26.1-34.1-14.9-19.4-14.9-19.4-11.8-25.5 13.8-27.1-11.7-59.8-41.4-53.3m249.3 243.2C752 381.3 773.8 399.3 781.1 523c5.8 98.9-9.4 168.3-41.5 189.8-59.5 39.8-394.7 39.8-454.2 0-32.1-21.5-47.3-90.9-41.5-189.8 7.7-130.5 28.8-144.8 226.1-152.4 19.3-.8 104.3.5 128.3 1.9Z"/>
      <rect fill="black" fill-opacity="0.90" x="372" y="482" width="82" height="136" rx="41" ry="41"/>
      <rect fill="black" fill-opacity="0.90" x="570" y="482" width="82" height="136" rx="41" ry="41"/>
    </mask>
  </defs>

  <!-- Orbyt TV Icon (Cutout) -->
  <g transform="translate(-6, 0) scale(0.068)">
    <path mask="url(#cutout-mask-wordmark)" fill="#f3f5fe" stroke="#f3f5fe" stroke-width="65" stroke-linejoin="round" stroke-linecap="round" d="M349 129.3c-23.9 5.4-36.8 31.5-26.1 53.2 8 16.2 25.2 24.4 42.1 20.1 7.4-1.9 5.3-3.4 18.5 13.9 10.3 13.6 33.6 44.2 36.7 48.4 3.5 4.6 3.5 4.6-1.1 8.9-5.9 5.6-14.1 16.9-19 26-5 9.4-3.4 8.6-22.1 10.2-136.2 11.1-177 34.7-192.6 111.5-16.5 81.2-16.5 193.6.1 276.7 10.5 52.9 39.8 83.7 89.3 93.9 6 1.3 6 1.3 2.5 8.8-18.4 39.4-5.4 73.1 30 78.1 24.5 3.5 32.3-1.8 73.7-50 20.8-24.3 16.8-22.1 37-20.5 50.9 4.1 138.2 4.1 189 0 20.2-1.6 16.2-3.8 37 20.5 41.4 48.2 49.2 53.5 73.7 50 35.4-5 48.4-38.7 30-78.1-3.5-7.5-3.5-7.5 2.5-8.8 49.5-10.2 78.8-41 89.3-93.9 16.6-83.1 16.6-195.5.1-276.7C824 344.7 783.2 321.1 647 310c-18.7-1.6-17.1-.8-22.1-10.2-4.9-9.1-13.1-20.4-19-26-4.6-4.3-4.6-4.3-1.1-8.9 3.1-4.2 26.4-34.8 36.7-48.4 13.2-17.3 11.1-15.8 18.5-13.9 41.5 10.6 64.2-49.2 26.3-69.3-32-17.1-68 17.2-51.7 49.3 3.1 6.1 3.1 6.1-11.8 25.5-8.2 10.7-20 26-26.1 34.1-11.1 14.8-11.1 14.8-14.7 12.6-44.5-26.5-94.5-26.5-139 0-3.6 2.2-3.6 2.2-14.7-12.6-6.1-8.1-17.9-23.4-26.1-34.1-14.9-19.4-14.9-19.4-11.8-25.5 13.8-27.1-11.7-59.8-41.4-53.3Z"/>
  </g>

  <!-- orbyt Wordmark (Figtree Black) -->
  <g fill="#f3f5fe">
    <path d="M293 -12Q213 -12 151.5 21.5Q90 55 55.0 114.0Q20 173 20 250Q20 327 54.5 386.0Q89 445 150.5 478.5Q212 512 291 512Q371 512 432.5 478.5Q494 445 528.5 386.0Q563 327 563 250Q563 173 528.5 114.0Q494 55 433.0 21.5Q372 -12 293 -12ZM293 154Q318 154 337.0 166.5Q356 179 367.0 200.5Q378 222 378 250Q378 278 367.0 299.5Q356 321 336.5 333.5Q317 346 291 346Q266 346 246.5 333.5Q227 321 216.0 299.5Q205 278 205 250Q205 222 216.0 200.5Q227 179 247.0 166.5Q267 154 293 154Z" transform="translate(69, 50) scale(0.048, -0.048)"/>
    <path d="M45 0V500H225V406Q257 453 304.5 477.5Q352 502 402 502V326Q355 326 314.5 317.5Q274 309 249.5 292.0Q225 275 225 251V0Z" transform="translate(95, 50) scale(0.048, -0.048)"/>
    <path d="M359 -12Q313 -12 279.0 5.5Q245 23 222 57L216 0H45V700H225V448Q248 480 281.0 496.0Q314 512 359 512Q430 512 480.5 481.0Q531 450 558.0 391.5Q585 333 585 250Q585 168 558.0 109.0Q531 50 480.5 19.0Q430 -12 359 -12ZM311 154Q336 154 355.0 166.5Q374 179 385.5 200.5Q397 222 397 250Q397 278 386.0 299.5Q375 321 356.0 333.0Q337 345 312 345Q287 345 267.0 333.0Q247 321 236.0 299.5Q225 278 225 250Q225 222 236.0 200.5Q247 179 266.5 166.5Q286 154 311 154Z" transform="translate(113, 50) scale(0.048, -0.048)"/>
    <path d="M196 -212Q161 -212 122.0 -198.5Q83 -185 60 -170L127 -25Q138 -34 150.5 -39.5Q163 -45 174 -45Q190 -45 204.5 -37.0Q219 -29 227 -10L235 10L0 500H200L316 211L422 500H622L407 -18Q384 -74 359.0 -118.0Q334 -162 296.5 -187.0Q259 -212 196 -212Z" transform="translate(138, 50) scale(0.048, -0.048)"/>
    <path d="M268 -12Q175 -12 130.0 32.0Q85 76 85 158V350H10V500H85V656H265V500H368V350H265V207Q265 179 273.0 167.0Q281 155 300 155Q308 155 320.0 160.0Q332 165 339 170L400 40Q377 20 340.0 4.0Q303 -12 268 -12Z" transform="translate(167, 50) scale(0.048, -0.048)"/>
  </g>
</svg>
